<svg width="31" height="30" viewBox="0 0 31 30" fill="none" xmlns="http://www.w3.org/2000/svg">
<path fill-rule="evenodd" clip-rule="evenodd" d="M5.69764 7.758C6.8228 6.63317 8.34865 6.00128 9.93964 6.00128C11.5306 6.00128 13.0565 6.63317 14.1816 7.758L15.9396 9.5145L17.6976 7.758C18.2511 7.18494 18.9132 6.72784 19.6452 6.41339C20.3772 6.09894 21.1645 5.93342 21.9612 5.9265C22.7579 5.91957 23.548 6.07138 24.2854 6.37307C25.0227 6.67475 25.6926 7.12027 26.256 7.68363C26.8194 8.24698 27.2649 8.9169 27.5666 9.65427C27.8682 10.3917 28.0201 11.1817 28.0131 11.9784C28.0062 12.7751 27.8407 13.5624 27.5262 14.2944C27.2118 15.0264 26.7547 15.6885 26.1816 16.242L15.9396 26.4855L5.69764 16.242C4.57281 15.1168 3.94092 13.591 3.94092 12C3.94092 10.409 4.57281 8.88316 5.69764 7.758V7.758Z" stroke="#C1C1C1" stroke-width="2" stroke-linejoin="round"/>
</svg>
