<svg width="30" height="29" viewBox="0 0 30 29" fill="none" xmlns="http://www.w3.org/2000/svg">
<path d="M23.75 4.82758V12.069M23.75 12.069C22.3693 12.069 21.25 13.1496 21.25 14.4827C21.25 15.8158 22.3693 16.8965 23.75 16.8965M23.75 12.069C25.1307 12.069 26.25 13.1496 26.25 14.4827C26.25 15.8158 25.1307 16.8965 23.75 16.8965M23.75 16.8965V24.1379M15 4.82758V19.3103M15 19.3103C13.6193 19.3103 12.5 20.391 12.5 21.7241C12.5 23.0572 13.6193 24.1379 15 24.1379C16.3807 24.1379 17.5 23.0572 17.5 21.7241C17.5 20.391 16.3807 19.3103 15 19.3103ZM6.25 9.65516V24.1379M6.25 9.65516C7.63071 9.65516 8.75 8.57447 8.75 7.24137C8.75 5.90827 7.63071 4.82758 6.25 4.82758C4.86929 4.82758 3.75 5.90827 3.75 7.24137C3.75 8.57447 4.86929 9.65516 6.25 9.65516Z" stroke="black" stroke-width="2" stroke-linecap="round" stroke-linejoin="round"/>
</svg>
