<svg width="30" height="30" viewBox="0 0 30 30" fill="none" xmlns="http://www.w3.org/2000/svg">
<circle cx="15" cy="15" r="15" fill="#505152"/>
<path fill-rule="evenodd" clip-rule="evenodd" d="M8.85481 10.6548C9.52991 9.97993 10.4454 9.60079 11.4 9.60079C12.3546 9.60079 13.2701 9.97993 13.9452 10.6548L15 11.7087L16.0548 10.6548C16.3869 10.311 16.7841 10.0367 17.2234 9.84806C17.6626 9.65939 18.135 9.56008 18.613 9.55592C19.091 9.55177 19.565 9.64285 20.0074 9.82387C20.4499 10.0049 20.8518 10.2722 21.1898 10.6102C21.5278 10.9482 21.7952 11.3502 21.9762 11.7926C22.1572 12.235 22.2483 12.7091 22.2441 13.1871C22.24 13.6651 22.1406 14.1375 21.952 14.5767C21.7633 15.0159 21.489 15.4131 21.1452 15.7452L15 21.8913L8.85481 15.7452C8.17992 15.0701 7.80078 14.1546 7.80078 13.2C7.80078 12.2454 8.17992 11.3299 8.85481 10.6548V10.6548Z" stroke="#73AB84" stroke-width="2" stroke-linejoin="round"/>
</svg>
